<?xml version="1.0"?>
<svg version="1.1" xmlns="http://www.w3.org/2000/svg" width="400px" height="128px" style=""><path fill="bg-primary" d="M22.935,97.465l0-32.43l-5.175-2.07l0-5.865l15.87-0.345l6.555,0c13.8,0,21.942,8.142,21.942,23.667s-8.97,24.978-22.977,24.978l-21.39,0l0-5.865z M33.63,97.12l5.727,0c6.693,0,11.178-3.933,11.178-16.353c0-11.592-3.933-15.732-10.695-15.732l-6.21,0l0,32.085z M73.13319,105.4l0-5.865l5.175-2.07l0-32.43l-5.175-2.07l0-5.865l21.045-0.345l0,6.21l-5.175,2.07l0,32.43l5.175,2.07l0,5.865l-21.045,0z M134.64738,76.42l0,7.59l-13.938,0l0,13.11l12.351,0l1.587-5.658l6.21,0l0,13.938l-36.018,0l0-5.865l5.175-2.07l0-32.43l-5.175-2.07l0-5.865l15.87-0.345l19.32,0l0,13.317l-6.21,0l-1.725-5.037l-11.385,0l0,11.385l13.938,0z M188.67576,65.035l0,21.735c0,7.935,2.277,11.04,9.039,11.04c7.314,0,8.901-3.933,8.901-12.075l0-20.7l-5.382-2.07l0-5.865l21.252-0.345l0,6.21l-5.175,2.07l0,20.7c0,13.317-5.106,20.493-19.941,20.493c-13.869,0-19.389-6.141-19.389-19.458l0-21.735l-5.106-2.07l0-5.865l21.183-0.345l0,6.21z M232.11195,105.4l0-5.865l5.175-2.07l0-32.43l-5.175-2.07l0-5.865l16.56-0.345l18.63,31.878l0-23.598l-5.037-2.07l0-5.865l19.665-0.345l0,6.21l-5.175,2.07l0,40.365l-11.523,0l-18.492-31.257l0,23.322l5.382,2.07l0,5.865l-20.01,0z M340.06314,99.535l0,5.865l-21.942,0l0-5.865l5.175-1.863l-1.656-5.037l-15.318,0l-1.725,4.968l5.382,1.932l0,5.865l-20.838,0l0-5.865l5.037-1.932l15.18-40.641l11.04-0.207l14.835,40.848z M319.36314,85.252l-5.175-16.353l-5.451,16.353l10.626,0z M347.61933,105.4l0-5.865l5.175-2.07l0-32.43l-5.175-2.07l0-5.865l15.87-0.345l6.555,0c10.557,0,16.767,5.52,16.767,14.49c0,11.592-7.107,17.25-19.665,17.25l-3.657,0l0,8.97l5.175,2.07l0,5.865l-21.045,0z M363.48933,80.422l3.657,0c5.727,0,8.97-2.691,8.97-7.797c0-4.485-2.415-7.59-7.107-7.59l-5.52,0l0,15.387z"/><path fill="#" d=""/></svg>
